# xmcd
#
# Track frame offsets:
# 182
# 17240
# 35652
# 55837
# 90475
# 122325
# 143510
# 166782
# 189742
# 212917
#
# Disc length: 3220 seconds
#
#
# Revision: 0
# Processed by: cddbd v1.5.2PL0 Copyright (c) Steve Scherf et al.
# Submitted via: FreeRIP 2.90 
#
DISCID=800c920a
DTITLE=Craig Erickson - Retro Blues Express
DYEAR=1994
DGENRE=Blues
TTITLE0=Wild Little Woman
TTITLE1=Don't Fight The Feeling
TTITLE2=Cold Wind
TTITLE3=Flyin' Free
TTITLE4=40 Days (40 Nights)
TTITLE5=Me And My Guitar
TTITLE6=Cosmic Farm
TTITLE7=Everybody's Business
TTITLE8=Nightmare Hotel
TTITLE9=Closing Time
EXTD=
EXTT0=
EXTT1=
EXTT2=
EXTT3=
EXTT4=
EXTT5=
EXTT6=
EXTT7=
EXTT8=
EXTT9=
PLAYORDER=
